<svg width="150" height="150" viewBox="0 0 150 150" fill="none" xmlns="http://www.w3.org/2000/svg">
<path d="M92.9285 62.0681V72.8214C92.9285 74.6989 94.5134 76.2595 96.4397 76.2595H134.99C136.941 76.2595 138.502 74.6746 138.502 72.7482V63.6531L143.305 58.6057L96.4397 58.4594C94.5134 58.4594 92.9285 60.0443 92.9285 62.0681Z" fill="#F5F5F5"/>
<path d="M134.778 64.9941L99.7869 64.8234V63.7505L134.778 63.9212V64.9941Z" fill="#E0E0E0"/>
<path d="M134.778 68.5307L99.7874 68.36V67.2871L134.778 67.4578V68.5307Z" fill="#E0E0E0"/>
<path d="M120.923 70.8285L120.918 71.9014L134.768 71.9695L134.773 70.8966L120.923 70.8285Z" fill="#E0E0E0"/>
<path d="M110.792 120.671C105.403 116.916 104.184 109.918 104.379 103.627C104.404 102.579 104.306 101.481 104.794 100.555C105.281 99.6281 106.452 98.9941 107.403 99.4574C108.183 99.8232 108.525 100.725 108.963 101.481C109.549 102.481 110.402 103.31 111.426 103.822C112.085 104.163 112.914 104.383 113.572 104.017C114.474 103.529 114.572 102.262 114.572 101.213C114.547 99.2623 114.547 97.3116 114.547 95.3853C114.547 94.3368 114.547 93.2883 114.864 92.2886C115.181 91.2888 115.913 90.3866 116.888 90.094C117.888 89.8258 119.107 90.3866 119.327 91.4108C119.424 91.8253 119.327 92.2886 119.351 92.7031C119.375 93.142 119.57 93.6053 119.985 93.7272C120.399 93.8491 120.814 93.5565 121.131 93.2395C122.204 92.191 122.935 90.8256 123.618 89.4844C124.301 88.1433 124.959 86.7535 125.935 85.6074C126.91 84.4614 128.275 83.5592 129.763 83.4617C131.25 83.3885 132.86 84.2907 133.225 85.7781C133.615 87.2411 132.738 88.7529 131.811 89.9234C130.421 91.679 128.787 93.2639 126.959 94.5563C126.642 94.8001 126.276 95.0439 126.154 95.4341C125.935 96.1412 126.593 96.824 127.276 97.0434C128.056 97.3116 128.909 97.2141 129.714 97.3116C130.519 97.4092 131.421 97.7749 131.713 98.5308C132.152 99.6037 131.25 100.725 130.372 101.457C128.617 102.92 126.617 104.09 124.471 104.871C123.716 105.163 122.887 105.407 122.277 105.943C121.667 106.48 121.277 107.431 121.667 108.162C122.033 108.894 123.008 109.138 123.813 108.991C124.618 108.845 125.325 108.406 126.105 108.114C127.544 107.577 129.397 107.675 130.299 108.918C130.909 109.723 130.958 110.869 130.641 111.844C130.324 112.82 129.714 113.649 129.056 114.429C126.764 117.136 123.813 119.306 120.497 120.452C117.181 121.573 114.108 121.89 110.792 120.671Z" fill="#F5F5F5"/>
<path d="M110.718 125.328C110.937 122.841 111.498 119.89 112.424 116.72C113.351 113.551 114.643 110.161 116.131 106.65C116.497 105.772 116.887 104.919 117.228 104.065C117.594 103.212 117.96 102.383 118.374 101.578C119.179 99.9688 120.081 98.4814 120.959 97.1159C121.861 95.726 122.763 94.4581 123.592 93.2632C124.446 92.0684 125.25 90.9712 126.055 90.0202C127.616 88.0939 129.054 86.6796 130.103 85.753C130.615 85.2898 131.029 84.9484 131.322 84.7045C131.468 84.5826 131.566 84.5095 131.639 84.4363C131.712 84.3876 131.761 84.3388 131.761 84.3632C131.761 84.3632 131.736 84.3876 131.663 84.4607C131.59 84.5339 131.493 84.6314 131.346 84.7289C131.078 84.9728 130.663 85.3385 130.151 85.8018C129.127 86.7528 127.713 88.167 126.177 90.0934C125.397 91.0687 124.592 92.166 123.738 93.3364C122.885 94.5312 122.007 95.7992 121.105 97.189C120.227 98.5789 119.325 100.042 118.52 101.651C118.13 102.456 117.764 103.285 117.399 104.138C117.033 104.992 116.667 105.845 116.301 106.723C114.814 110.21 113.522 113.599 112.595 116.769C111.669 119.915 111.108 122.841 110.864 125.328" fill="#E0E0E0"/>
<path d="M118.428 101.58C118.404 101.58 118.379 101.433 118.33 101.141C118.282 100.848 118.208 100.433 118.135 99.9214C117.989 98.8729 117.843 97.4343 117.672 95.8493C117.501 94.2644 117.331 92.8257 117.16 91.8016C117.087 91.2896 117.014 90.875 116.965 90.5824C116.916 90.2898 116.892 90.1435 116.916 90.1191C116.94 90.1191 116.965 90.2654 117.038 90.558C117.111 90.8507 117.209 91.2652 117.306 91.7772C117.501 92.8014 117.696 94.24 117.867 95.8493C118.038 97.4099 118.16 98.8485 118.282 99.9214C118.33 100.409 118.379 100.824 118.404 101.165C118.428 101.409 118.452 101.58 118.428 101.58Z" fill="#E0E0E0"/>
<path d="M131.836 99.0613C131.836 99.0857 131.641 99.0857 131.299 99.1344C130.958 99.1588 130.446 99.2076 129.836 99.2807C128.617 99.4026 126.91 99.6465 125.057 100.012C123.204 100.354 121.546 100.744 120.351 101.061C119.741 101.207 119.278 101.353 118.937 101.451C118.595 101.548 118.425 101.597 118.425 101.573C118.425 101.548 118.595 101.5 118.937 101.378C119.254 101.256 119.741 101.11 120.327 100.939C121.521 100.597 123.179 100.183 125.033 99.8172C126.886 99.4758 128.593 99.2563 129.836 99.1588C130.446 99.11 130.958 99.0857 131.299 99.0857C131.665 99.0369 131.836 99.0613 131.836 99.0613Z" fill="#E0E0E0"/>
<path d="M112.59 116.48C112.59 116.48 112.541 116.431 112.492 116.31C112.419 116.188 112.346 116.017 112.273 115.822C112.078 115.407 111.81 114.773 111.493 114.017C110.834 112.481 110.03 110.335 109.127 107.946C108.25 105.556 107.445 103.41 106.835 101.85C106.543 101.094 106.274 100.484 106.104 100.021C106.031 99.8261 105.957 99.6554 105.909 99.5335C105.86 99.4116 105.836 99.3628 105.86 99.3628C105.86 99.3628 105.909 99.4116 105.957 99.5335C106.031 99.6554 106.104 99.8261 106.177 100.021C106.372 100.436 106.64 101.07 106.957 101.826C107.616 103.362 108.42 105.508 109.322 107.897C110.2 110.287 111.005 112.432 111.614 113.993C111.907 114.749 112.175 115.359 112.346 115.822C112.419 116.017 112.492 116.188 112.541 116.31C112.565 116.431 112.59 116.48 112.59 116.48Z" fill="#E0E0E0"/>
<path d="M130.427 110.752C130.427 110.752 130.378 110.776 130.256 110.825C130.11 110.874 129.939 110.922 129.744 110.996C129.256 111.142 128.622 111.361 127.842 111.605C126.233 112.117 124.014 112.873 121.551 113.702C119.112 114.531 116.869 115.263 115.26 115.75C114.455 115.994 113.797 116.189 113.333 116.311C113.114 116.36 112.943 116.409 112.797 116.458C112.675 116.482 112.602 116.506 112.602 116.482C112.602 116.482 112.651 116.458 112.773 116.409C112.919 116.36 113.09 116.311 113.285 116.238C113.772 116.092 114.406 115.872 115.187 115.629C116.796 115.116 119.015 114.361 121.478 113.532C123.916 112.703 126.159 111.971 127.769 111.483C128.573 111.239 129.232 111.044 129.695 110.922C129.914 110.874 130.085 110.825 130.231 110.776C130.353 110.752 130.427 110.727 130.427 110.752Z" fill="#E0E0E0"/>
<path d="M144 126.375C144 126.5 113.11 126.75 75.012 126.75C36.8902 126.75 6 126.625 6 126.375C6 126.25 36.8902 126 75.012 126C113.11 126.125 144 126.25 144 126.375Z" fill="#263238"/>
<path d="M118.554 66.3406V123.642C118.554 125.203 117.286 126.447 115.75 126.447H31.0654C29.5048 126.447 28.2612 125.179 28.2612 123.642V66.3406C28.2612 64.7801 29.5292 63.5365 31.0654 63.5365H115.75C117.311 63.5121 118.554 64.7801 118.554 66.3406Z" fill="#263238"/>
<path d="M34.4297 65.5166L34.4297 124.477H109.849V65.5166H34.4297Z" fill="#E4E4E4"/>
<path d="M116.387 95.5398C116.692 94.2419 115.887 92.9425 114.589 92.6374C113.292 92.3324 111.992 93.1373 111.687 94.4351C111.382 95.733 112.187 97.0324 113.485 97.3375C114.783 97.6425 116.082 96.8377 116.387 95.5398Z" fill="#455A64"/>
<path d="M31.845 85.7955V104.157C31.845 104.327 31.723 104.449 31.5523 104.449H31.1378C30.9671 104.449 30.8452 104.327 30.8452 104.157V85.7955C30.8452 85.6248 30.9671 85.5029 31.1378 85.5029H31.5523C31.723 85.5029 31.845 85.6248 31.845 85.7955Z" fill="#455A64"/>
<path d="M109.85 65.5085H34.4314V69.2636H109.85V65.5085Z" fill="#C9C9C9"/>
<path d="M36.8703 67.265C36.8703 67.5576 36.6509 67.7771 36.3583 67.7771C36.0656 67.7771 35.8462 67.5576 35.8462 67.265C35.8462 66.9724 36.0656 66.7529 36.3583 66.7529C36.6509 66.7529 36.8703 66.9968 36.8703 67.265Z" fill="white"/>
<path d="M38.5519 67.265C38.5519 67.5576 38.3325 67.7771 38.0399 67.7771C37.7473 67.7771 37.5278 67.5576 37.5278 67.265C37.5278 66.9724 37.7473 66.7529 38.0399 66.7529C38.3325 66.7529 38.5519 66.9968 38.5519 67.265Z" fill="white"/>
<path d="M40.2585 67.265C40.2585 67.5576 40.039 67.7771 39.7464 67.7771C39.4538 67.7771 39.2344 67.5576 39.2344 67.265C39.2344 66.9724 39.4538 66.7529 39.7464 66.7529C40.039 66.7529 40.2585 66.9968 40.2585 67.265Z" fill="white"/>
<path d="M46.2842 23.25C46.2842 23.25 46.2355 23.25 46.1135 23.2744C45.9916 23.2744 45.8209 23.2988 45.6259 23.3232C45.4064 23.3232 45.1382 23.3719 44.8212 23.4451C44.6749 23.4695 44.4798 23.4938 44.3091 23.5426C44.1385 23.5914 43.9434 23.6401 43.7483 23.7133C42.968 23.9815 42.0171 24.3717 41.0661 25.0788C40.1151 25.7859 39.1885 26.7613 38.457 28.0536C38.0669 28.6876 37.7987 29.4191 37.5548 30.175C37.3598 30.9553 37.1891 31.7843 37.1891 32.6621C37.1647 33.101 37.2135 33.5399 37.2378 33.9789C37.2622 34.1983 37.311 34.4178 37.3354 34.6616C37.3598 34.8811 37.4085 35.1249 37.4817 35.3443C37.6768 36.2465 38.0669 37.1244 38.5302 37.9778C39.4812 39.6847 41.0661 41.1477 43.0168 41.9767C43.9922 42.3913 45.065 42.6107 46.1623 42.6351C47.2596 42.6839 48.3812 42.5132 49.4297 42.123L49.7467 42.0011L49.7955 41.9767L49.8443 42.0011C51.4292 42.7814 52.9654 43.5373 54.4772 44.2932L54.3309 44.4151C53.8188 42.9033 53.3311 41.4159 52.8435 40.0016L52.8191 39.9529L52.8678 39.9041C54.0139 38.7337 54.8185 37.295 55.2331 35.8564C55.672 34.3934 55.7207 32.9304 55.5257 31.5649C55.3306 30.1994 54.8673 28.9802 54.2821 27.9561C53.6725 26.9319 52.941 26.0785 52.1851 25.4445C51.4048 24.7862 50.6245 24.3717 49.9174 24.0303C49.1859 23.7377 48.5275 23.5426 47.9911 23.4451C47.7229 23.3963 47.479 23.3719 47.284 23.3232C47.0889 23.3232 46.8938 23.2988 46.7475 23.2988C46.6012 23.2988 46.5037 23.2744 46.4305 23.2744C46.3086 23.25 46.2842 23.25 46.2842 23.25C46.2842 23.25 46.333 23.25 46.4061 23.25C46.4793 23.25 46.6012 23.25 46.7231 23.25C46.8694 23.25 47.0401 23.25 47.2596 23.2744C47.479 23.2988 47.7229 23.3475 47.9911 23.3719C48.5275 23.4695 49.1859 23.6401 49.9418 23.9327C50.6733 24.2497 51.478 24.6886 52.2582 25.347C53.0385 26.0054 53.7944 26.8344 54.404 27.8829C55.0136 28.9314 55.5013 30.175 55.6964 31.5405C55.8914 32.906 55.8427 34.4178 55.4037 35.9052C54.9648 37.3926 54.1602 38.8312 52.9898 40.026L53.0141 39.9285C53.5018 41.3428 53.9895 42.8058 54.5015 44.342L54.5747 44.5614L54.3552 44.4639C52.8435 43.7324 51.3073 42.9521 49.7223 42.1718H49.7955L49.4785 42.2937C48.4056 42.6839 47.2596 42.8789 46.1379 42.8058C45.0163 42.7814 43.919 42.5376 42.9193 42.123C40.9198 41.2696 39.3105 39.7822 38.3351 38.0509C37.8474 37.1975 37.4573 36.2709 37.2622 35.3687C37.1891 35.1493 37.1647 34.9054 37.1159 34.686C37.0915 34.4665 37.0428 34.2227 37.0184 34.0032C36.994 33.5399 36.9452 33.101 36.994 32.6621C36.994 31.7843 37.1891 30.9309 37.3842 30.1506C37.628 29.3703 37.9206 28.6388 38.3107 27.9804C39.0666 26.6881 40.0176 25.6884 40.9929 24.9812C41.9683 24.2741 42.9193 23.884 43.7239 23.6401C43.919 23.5914 44.1141 23.5426 44.2848 23.4938C44.4554 23.4451 44.6261 23.4207 44.7968 23.3963C45.1138 23.3475 45.382 23.2988 45.6015 23.2988C45.8209 23.2988 45.9916 23.2744 46.0892 23.2744C46.2355 23.25 46.2842 23.25 46.2842 23.25Z" fill="#263238"/>
<path d="M44.7189 31.7602H45.4017L46.8891 29.712L46.9135 28.3709C46.9135 28.3709 47.962 28.3221 47.8157 30.0777C47.6694 31.8334 47.8157 31.3944 47.8157 31.3944C47.8157 31.3944 50.0346 31.4188 50.2053 31.6139C50.3272 31.7602 50.376 33.9547 50.376 35.1495C50.376 35.7591 50.0102 36.2956 49.4494 36.4419C49.3762 36.4663 49.2787 36.4663 49.2056 36.4663C48.6447 36.4663 45.8406 35.9786 45.8406 35.9786L44.6702 35.9542L44.7189 31.7602Z" fill="#81A8DC"/>
<path d="M42.7934 31.3706L43.1348 35.9791L44.3052 36.0035L44.354 31.4681L42.7934 31.3706Z" fill="#81A8DC"/>
<g opacity="0.95">
<rect x="47.9639" y="88.031" width="51.051" height="11.3953" rx="3" fill="#F5F5F5"/>
<path d="M50.4795 91.3837L75.8227 91.2698V90.4949L50.4795 90.6088V91.3837Z" fill="#E1E1E1"/>
<path d="M50.4768 93.958L75.82 93.8213V93.0464L50.4768 93.1603V93.958Z" fill="#E1E1E1"/>
<path d="M60.5049 95.6189L50.4771 95.6682L50.4809 96.4431L60.5087 96.3937L60.5049 95.6189Z" fill="#E1E1E1"/>
<path d="M95.2546 92.1331H84.0872C83.3949 92.1331 82.8337 92.6943 82.8337 93.3865C82.8337 94.0788 83.3949 94.64 84.0872 94.64H95.2546C95.9469 94.64 96.5081 94.0788 96.5081 93.3865C96.5081 92.6943 95.9469 92.1331 95.2546 92.1331Z" fill="#B7B7B7" fill-opacity="0.3"/>
</g>
<g opacity="0.95">
<rect x="47.9641" y="100.983" width="51.051" height="11.3953" rx="3" fill="#F5F5F5"/>
<path d="M50.48 104.33L75.8232 104.216V103.441L50.48 103.555V104.33Z" fill="#E1E1E1"/>
<path d="M50.4771 106.905L75.8202 106.768V105.993L50.4771 106.107V106.905Z" fill="#E1E1E1"/>
<path d="M60.5049 108.568L50.4771 108.618L50.4809 109.393L60.5087 109.343L60.5049 108.568Z" fill="#E1E1E1"/>
<path d="M95.2551 105.088H84.0877C83.3954 105.088 82.8342 105.649 82.8342 106.341C82.8342 107.033 83.3954 107.595 84.0877 107.595H95.2551C95.9474 107.595 96.5086 107.033 96.5086 106.341C96.5086 105.649 95.9474 105.088 95.2551 105.088Z" fill="#B7B7B7" fill-opacity="0.3"/>
</g>
<g filter="url(#filter0_d)">
<g filter="url(#filter1_d)">
<rect x="37.9111" y="75.2615" width="69.6959" height="15.5571" rx="3" transform="rotate(-1.81706 37.9111 75.2615)" fill="white"/>
</g>
<path d="M41.4816 79.7263L76.0583 78.4737L76.0248 77.4163L41.448 78.6689L41.4816 79.7263Z" fill="#F0F0F0"/>
<path d="M41.5885 83.2413L76.1643 81.9576L76.1307 80.9002L41.554 82.1528L41.5885 83.2413Z" fill="#F0F0F0"/>
<path d="M55.346 85.0755L41.6648 85.5769L41.7035 86.6341L55.3848 86.1326L55.346 85.0755Z" fill="#F0F0F0"/>
<path d="M102.617 78.8136L87.3784 79.2971C86.4338 79.327 85.6923 80.1171 85.7222 81.0617C85.7522 82.0064 86.5423 82.7479 87.4869 82.7179L102.725 82.2345C103.67 82.2045 104.411 81.4144 104.381 80.4698C104.351 79.5252 103.561 78.7837 102.617 78.8136Z" fill="#81A8DC"/>
</g>
<path d="M63.186 63.9012C63.186 63.9012 62.6739 62.7308 62.5764 62.487C62.3082 61.7798 60.6257 57.0982 61.0402 56.391C62.9178 53.0992 64.3564 50.7828 68.0627 50.7828L74.5732 50.734C74.5732 50.734 80.7423 49.4661 85.107 63.5111L63.186 63.9012Z" fill="#455A64"/>
<path d="M49.4337 65.096L57.968 63.2672L67.9898 58.0003L68.0385 50.8071C66.5267 50.3926 63.6495 51.4411 58.4557 54.0745L50.7504 58.0491C48.117 59.3902 47.483 62.8527 49.4337 65.096Z" fill="#455A64"/>
<path d="M68.6502 79.0182C68.5283 78.6037 68.6014 78.3599 69.211 78.5549C70.5033 78.9938 71.6737 78.8475 71.9664 78.6037C72.259 78.3599 71.9907 77.8722 71.5762 77.8966C71.2348 77.921 70.6496 77.8234 70.2107 77.7015C69.845 77.604 69.5036 77.482 69.1866 77.2626C68.9184 77.0919 68.6745 76.9212 68.4795 76.7749C68.4795 76.7749 67.2847 75.8971 66.8945 75.2144L62.7737 76.97L63.432 79.0426C63.432 79.0426 63.6515 80.2618 64.8219 80.6519C65.9923 81.0421 67.8699 80.8958 67.8699 80.8958C68.2113 80.6763 69.528 82.5783 69.9425 83.261C70.3326 83.9194 70.8203 84.0169 70.9666 83.6024C71.0642 83.3098 69.8937 81.2128 69.4792 80.5544C69.2354 80.213 68.7965 79.5059 68.6502 79.0182Z" fill="#B77153"/>
<path d="M65.843 80.8959C65.843 80.9202 65.7454 80.8959 65.5991 80.8471C65.4528 80.7739 65.2821 80.6276 65.1602 80.4326C65.0383 80.2131 65.0139 79.9937 65.0383 79.8474C65.0627 79.7011 65.1114 79.6035 65.1114 79.6035C65.1602 79.6035 65.0627 79.9937 65.2821 80.3594C65.5016 80.7495 65.8673 80.8715 65.843 80.8959Z" fill="#995037"/>
<path d="M67.1606 80.9428C67.1606 80.9672 67.063 80.9428 66.9411 80.8697C66.8192 80.7965 66.6485 80.6502 66.551 80.4552C66.4534 80.2601 66.4047 80.0406 66.4291 79.8943C66.4534 79.748 66.4778 79.6505 66.5022 79.6749C66.551 79.6749 66.4778 80.0406 66.6729 80.4064C66.8436 80.7965 67.1606 80.9185 67.1606 80.9428Z" fill="#995037"/>
<path d="M49.1865 64.8045C49.1865 64.8045 62.2562 79.8249 62.2562 79.5811C62.2318 79.3373 68.1083 74.9482 68.1083 74.9482L55.2825 59.684L49.1865 64.8045Z" fill="#455A64"/>
<path d="M57.1113 61.8545C57.1113 61.8545 57.1357 61.8789 57.2089 61.952C57.282 62.0252 57.3552 62.1227 57.4527 62.2202C57.6722 62.4641 57.9648 62.8055 58.3305 63.2444C59.062 64.0978 60.0861 65.2926 61.1834 66.6337C62.3051 67.9504 63.3048 69.1696 64.0119 70.0474C64.3533 70.4863 64.6459 70.8277 64.8654 71.0959C64.9629 71.2179 65.0361 71.3154 65.0848 71.3885C65.1336 71.4617 65.158 71.4861 65.158 71.4861C65.158 71.4861 65.1336 71.4617 65.0604 71.3885C64.9873 71.3154 64.9141 71.2179 64.8166 71.1203C64.5971 70.8765 64.3045 70.5351 63.9388 70.0962C63.2073 69.2428 62.1832 68.048 61.0859 66.7069C59.9642 65.3901 58.9645 64.1709 58.2574 63.2931C57.916 62.8542 57.6234 62.5129 57.4039 62.2446C57.3064 62.1227 57.2332 62.0252 57.1845 61.952C57.1357 61.9033 57.1113 61.8545 57.1113 61.8545Z" fill="#263238"/>
<path d="M80.2516 63.583C80.2272 63.583 80.3979 63.2173 80.3979 62.6321C80.3979 62.3395 80.3491 61.9737 80.2272 61.6079C80.1053 61.2422 79.8614 60.852 79.5444 60.5351C79.2274 60.1937 78.8861 59.9255 78.6179 59.6085C78.3496 59.3159 78.1302 58.9989 78.0326 58.7063C77.9107 58.4137 77.9107 58.1454 77.9351 57.9748C77.9595 57.8041 78.0083 57.7065 78.0083 57.7065C78.0326 57.7065 77.8863 58.0967 78.1302 58.6575C78.2521 58.9257 78.4472 59.2427 78.7154 59.5109C78.9836 59.8035 79.325 60.0962 79.6664 60.4375C79.9833 60.7789 80.2516 61.169 80.3735 61.5592C80.4954 61.9493 80.5442 62.3151 80.5198 62.6321C80.4954 62.949 80.4466 63.1929 80.3735 63.3392C80.3003 63.5099 80.2516 63.583 80.2516 63.583Z" fill="#263238"/>
<path d="M62.62 52.0275C62.62 52.0275 62.6932 52.0031 62.8151 51.9299C62.937 51.8812 63.1321 51.808 63.3759 51.7349C63.6197 51.6617 63.9367 51.5886 64.3025 51.5398C64.6682 51.5154 65.1072 51.5154 65.5704 51.6617C66.0337 51.808 66.4726 52.0762 66.8628 52.4908C67.2529 52.9053 67.4968 53.4661 67.6431 54.0757C67.765 54.6853 67.8381 55.3437 67.765 56.0264C67.6918 56.7092 67.4724 57.3919 67.0335 57.9771C66.6189 58.5623 66.0337 59.0012 65.4729 59.367C64.9121 59.7327 64.3269 60.0253 63.7904 60.318C62.6932 60.8788 61.7178 61.4152 60.8888 61.8541C60.0597 62.2687 59.4013 62.6344 58.9381 62.8782C58.7186 63.0002 58.5235 63.0733 58.4016 63.1465C58.2797 63.1952 58.2065 63.244 58.2065 63.244C58.2065 63.244 58.2553 63.1952 58.3772 63.1221C58.4992 63.0489 58.6942 62.9514 58.9137 62.8295C59.377 62.5856 60.0353 62.2199 60.8644 61.781C61.6934 61.3421 62.6688 60.8056 63.7417 60.2448C64.2781 59.9522 64.8633 59.6596 65.4241 59.2938C65.985 58.9281 66.5458 58.5136 66.9603 57.9283C67.3748 57.3675 67.5943 56.6848 67.6674 56.0264C67.7406 55.368 67.6674 54.7097 67.5455 54.1245C67.4236 53.5393 67.1798 52.9784 66.814 52.5883C66.4483 52.1982 66.0093 51.9056 65.5704 51.7836C65.1315 51.6373 64.717 51.6373 64.3513 51.6617C63.9855 51.6861 63.6685 51.7593 63.4247 51.8324C63.1808 51.9056 62.9858 51.9787 62.8638 52.0031C62.6932 52.0031 62.62 52.0275 62.62 52.0275Z" fill="#263238"/>
<path d="M58.5579 63.2425C58.5091 63.2425 58.4116 62.389 57.8264 61.5112C57.2655 60.6334 56.5096 60.1701 56.534 60.1213C56.534 60.0969 56.7291 60.1945 57.0217 60.4139C57.2899 60.6334 57.6557 60.9748 57.9483 61.4137C58.2409 61.877 58.4116 62.3159 58.4847 62.6572C58.5823 63.023 58.5823 63.2425 58.5579 63.2425Z" fill="#263238"/>
<path d="M77.7629 61.6099C77.7629 61.6099 77.6653 61.6587 77.4946 61.6831C77.2996 61.7319 77.0314 61.7562 76.6656 61.7075C76.2998 61.6831 75.8609 61.5612 75.422 61.293C74.9831 61.0247 74.5442 60.6102 74.276 60.0006C74.0078 59.4154 73.9102 58.6595 74.1297 57.928C74.2516 57.5622 74.4711 57.1965 74.8124 56.977C74.9831 56.8551 75.227 56.8063 75.4464 56.8551C75.6659 56.9039 75.8609 57.0502 75.9828 57.2209C76.4705 57.9524 76.5681 58.9277 76.2755 59.8299C76.1291 60.2688 75.8853 60.7077 75.5439 61.0491C75.2026 61.3905 74.7637 61.6343 74.276 61.7562C73.325 62.0001 72.2521 61.7806 71.5694 61.1223C70.8866 60.4639 70.6184 59.4886 70.7647 58.6351C70.8379 58.1962 71.0086 57.8061 71.2524 57.4891C71.3743 57.3428 71.545 57.1965 71.7401 57.1233C71.9351 57.0502 72.1546 57.0502 72.3497 57.1233C72.7154 57.294 72.9349 57.6598 72.9836 58.0011C73.0324 58.3669 72.9105 58.7083 72.7886 59.0009C72.496 59.5861 72.1302 60.0494 71.7401 60.3908C71.3743 60.7321 70.9842 60.976 70.6672 61.1467C70.3502 61.3173 70.082 61.4149 69.9113 61.4636C69.8138 61.488 69.7406 61.5124 69.7162 61.5124C69.6675 61.5124 69.6431 61.5368 69.6431 61.5368C69.6431 61.5368 69.6675 61.5368 69.7162 61.5124C69.765 61.488 69.8381 61.488 69.9113 61.4393C70.082 61.3661 70.3502 61.2686 70.6672 61.0979C70.9842 60.9272 71.3499 60.6834 71.7157 60.342C72.0814 60.0006 72.4472 59.5373 72.7154 58.9765C72.8373 58.6839 72.9349 58.3669 72.8861 58.0255C72.8373 57.7085 72.6423 57.3672 72.3009 57.2209C72.1302 57.1477 71.9595 57.1477 71.7888 57.2209C71.6182 57.294 71.4718 57.4159 71.3499 57.5622C71.1061 57.8792 70.9354 58.245 70.8866 58.6595C70.7647 59.4642 71.0086 60.4151 71.6669 61.0247C72.3253 61.6587 73.3494 61.8782 74.2516 61.6343C74.7149 61.5124 75.1294 61.2686 75.4708 60.9516C75.8122 60.6346 76.0316 60.2201 76.1779 59.7812C76.3242 59.3423 76.373 58.9033 76.3242 58.4644C76.2998 58.245 76.2511 58.0499 76.1779 57.8305C76.1048 57.6354 76.0316 57.4403 75.9097 57.2696C75.7878 57.099 75.6171 56.977 75.4464 56.9526C75.2513 56.9039 75.0563 56.9526 74.91 57.0746C74.593 57.2696 74.3735 57.611 74.276 57.9524C74.0565 58.6595 74.1541 59.391 74.4223 59.9519C74.6661 60.5371 75.0806 60.9516 75.5196 61.2198C75.9585 61.488 76.373 61.5856 76.7387 61.6343C77.3971 61.7319 77.7629 61.5856 77.7629 61.6099Z" fill="#FAFAFA"/>
<path d="M78.7689 46.9816C78.5006 46.6402 78.2812 46.2501 78.1836 45.8112C78.1593 45.6649 78.1349 45.5186 78.1593 45.3967C78.208 45.2504 78.33 45.1528 78.4763 45.1528C78.6226 45.1772 78.7201 45.2991 78.7932 45.4211C79.0127 45.7868 79.2565 46.1526 79.4028 46.5671C79.4516 46.689 79.476 46.7865 79.476 46.9085C79.476 47.0304 79.4028 47.1523 79.3053 47.2011C79.1834 47.2498 79.0371 47.2255 78.9395 47.1523C78.842 47.0791 78.7689 46.9572 78.6957 46.8597" fill="#995037"/>
<path d="M79.3785 46.7108C79.159 46.2719 78.9395 45.8086 78.7445 45.3697C78.6713 45.2478 78.6226 45.1015 78.6226 44.9552C78.6226 44.8089 78.6957 44.6382 78.842 44.5894C78.9639 44.5407 79.1102 44.5894 79.2078 44.687C79.3053 44.7845 79.3541 44.882 79.4272 45.004C79.5248 45.199 79.6223 45.3941 79.7198 45.5892C79.793 45.7599 79.8905 45.9062 79.9149 46.1012C79.9393 46.2719 79.9149 46.467 79.8174 46.6133C79.6954 46.7596 79.5004 46.8084 79.3297 46.7352" fill="#995037"/>
<path d="M76.5241 50.8821C76.5241 50.8821 75.6219 49.7117 75.5488 49.1021C75.4756 48.4925 76.2315 47.3952 77.8409 47.1514C78.6943 47.0295 79.2064 46.7856 79.499 46.5906C79.694 46.4443 79.7916 46.2004 79.694 45.9566C79.4746 45.4445 79.1088 44.4936 79.1332 44.3717C79.2064 44.0547 79.4258 44.0547 79.9866 44.8593C80.5475 45.664 81.1814 46.493 81.0595 46.8832C80.9376 47.2489 78.9625 48.4194 78.9625 48.4194L79.499 49.2972L76.5241 50.8821Z" fill="#B77153"/>
<path d="M81.8624 62.829L75.6689 50.7102L79.6435 48.4669L88.0071 61.7317C88.0071 61.7317 88.446 62.5851 89.0556 63.5605H82.0331" fill="#455A64"/>
<path d="M79.5982 48.4865C79.5982 48.4865 79.5738 48.5108 79.5251 48.5352C79.4763 48.5596 79.4031 48.6084 79.3056 48.6571C79.1105 48.7791 78.8423 48.9254 78.5009 49.1204C77.7938 49.535 76.8185 50.0958 75.6237 50.7541L75.648 50.681C76.2576 51.9002 77.0379 53.3388 77.8182 54.875C78.9886 57.1671 80.0127 59.2397 80.7199 60.7759C81.0856 61.5318 81.3538 62.1657 81.5489 62.5803C81.6464 62.7753 81.7196 62.946 81.7684 63.0679C81.8171 63.1899 81.8415 63.2386 81.8415 63.2386C81.8415 63.2386 81.8171 63.1899 81.744 63.0679C81.6952 62.946 81.5977 62.7753 81.5001 62.5803C81.2807 62.1414 80.9881 61.5318 80.6223 60.8002C79.8908 59.2885 78.8667 57.2158 77.6963 54.9238C76.916 53.3876 76.1357 51.9489 75.5505 50.7298L75.5261 50.681L75.5749 50.6566C76.7697 49.9982 77.7694 49.4618 78.4766 49.0473C78.8179 48.8522 79.0862 48.7059 79.2812 48.6084C79.3788 48.5596 79.4519 48.5352 79.5007 48.4865C79.5494 48.4865 79.5982 48.4865 79.5982 48.4865Z" fill="#263238"/>
<path d="M63.184 63.8993C63.1596 63.9237 62.8182 63.3141 62.5256 62.5338C62.233 61.7291 62.1355 61.0708 62.1598 61.0464C62.2086 61.0464 62.3549 61.7047 62.6475 62.485C62.9157 63.2897 63.2083 63.8993 63.184 63.8993Z" fill="#263238"/>
<path d="M76.8118 46.0518C77.7872 46.4419 78.982 46.1006 79.6404 45.2715C80.2743 44.4425 80.2987 43.1989 79.7135 42.3455C81.1034 42.0041 81.9812 40.3704 81.6886 38.9561C81.396 37.5419 80.1524 36.4446 78.7382 36.1276C78.2017 36.0057 77.6165 36.0057 77.1044 36.1764C76.5924 36.3471 76.1047 36.7128 75.8853 37.2249" fill="#263238"/>
<path d="M76.6193 42.8822C76.6193 42.9066 76.4486 42.931 76.1316 43.0773C75.839 43.2236 75.4489 43.5406 75.2051 44.077C75.0831 44.3453 75.01 44.6622 75.0344 45.0036C75.0588 45.345 75.1563 45.7108 75.3757 46.0277C75.4733 46.1984 75.6196 46.3447 75.7659 46.4666C75.9122 46.5886 76.0829 46.7105 76.2779 46.7836C76.6681 46.9543 77.107 47.0031 77.5459 46.9056C77.9848 46.808 78.375 46.5642 78.6432 46.2472C78.7895 46.1009 78.887 45.9058 78.9602 45.7351C79.0333 45.5401 79.1065 45.3694 79.1065 45.1743C79.1552 44.7842 79.0821 44.4184 78.9602 44.1014C78.8382 43.7844 78.6188 43.5162 78.3993 43.3455C77.936 42.9554 77.4484 42.8579 77.1314 42.8335C76.79 42.8579 76.6193 42.9066 76.6193 42.8822C76.6193 42.8822 76.6681 42.8579 76.7412 42.8579C76.8388 42.8335 76.9607 42.8091 77.1314 42.8091C77.4727 42.8091 77.9848 42.9066 78.4725 43.2968C78.7163 43.4918 78.9358 43.76 79.0821 44.077C79.2284 44.4184 79.3015 44.8086 79.2528 45.1987C79.2284 45.3938 79.1796 45.6132 79.0821 45.8083C79.0089 46.0034 78.887 46.1984 78.7407 46.3691C78.4481 46.7105 78.0336 46.9543 77.5703 47.0762C77.107 47.1738 76.6193 47.125 76.2292 46.9543C76.0341 46.8568 75.839 46.7593 75.6684 46.6129C75.4977 46.4666 75.3757 46.3203 75.2538 46.1497C75.0344 45.8083 74.9368 45.4181 74.9125 45.0524C74.8881 44.6866 74.9856 44.3453 75.1075 44.077C75.3757 43.5162 75.7903 43.1992 76.1073 43.0529C76.2536 42.9798 76.3755 42.931 76.473 42.931C76.5705 42.8822 76.6193 42.8822 76.6193 42.8822Z" fill="#E8505B"/>
<path d="M77.6665 39.0286C78.6662 38.9798 79.6172 38.1995 79.861 37.2242C80.1048 36.2488 79.6659 35.1272 78.8125 34.5907C79.227 33.4203 78.8125 32.0061 77.8371 31.2502C76.8618 30.4943 75.3988 30.4211 74.3503 31.1039C73.57 29.714 71.8631 28.9093 70.3026 29.1532C68.7176 29.397 67.3765 30.7137 67.0595 32.2743C65.6453 31.6891 63.8896 32.0548 62.8167 33.1765C61.7682 34.2981 61.4756 36.0781 62.1584 37.4436C60.6222 37.5655 59.3299 39.1017 59.4762 40.6379C59.5981 42.1741 61.1343 43.4664 62.6704 43.3445C62.3534 44.3686 62.7436 45.5634 63.6214 46.1974C64.4748 46.8314 65.7428 46.8558 66.645 46.2706C67.2058 47.1971 68.3275 47.7336 69.4004 47.6117C70.4732 47.4897 71.4242 46.7095 71.79 45.6853" fill="#263238"/>
<path d="M74.7391 50.49C74.7879 49.2952 74.861 48.2223 74.861 48.2223C74.861 48.2223 77.5188 47.8809 77.6407 45.1743C77.7627 42.4677 77.4944 36.2255 77.4944 36.2255L72.6177 33.8846L67.3264 38.1274L68.1555 50.5631C68.2774 52.3675 69.8136 53.733 71.5936 53.6355C73.3004 53.5623 74.6659 52.1968 74.7391 50.49Z" fill="#B77153"/>
<path d="M77.3262 40.8595C77.2774 40.9082 77.0336 40.6888 76.6678 40.6888C76.3021 40.6644 76.0339 40.8595 75.9851 40.8107C75.9607 40.7863 76.0095 40.7132 76.1314 40.6156C76.2533 40.5181 76.4484 40.4449 76.6678 40.4693C76.8873 40.4693 77.0824 40.5669 77.1799 40.6644C77.3262 40.7619 77.3506 40.8595 77.3262 40.8595Z" fill="#263238"/>
<path d="M73.3059 40.8595C73.2572 40.9082 73.0133 40.6888 72.6476 40.6888C72.2818 40.6644 72.0136 40.8595 71.9648 40.8107C71.9405 40.7863 71.9892 40.7132 72.1111 40.6156C72.2331 40.5181 72.4281 40.4449 72.6476 40.4693C72.867 40.4693 73.0621 40.5669 73.1596 40.6644C73.2816 40.7619 73.3303 40.8595 73.3059 40.8595Z" fill="#263238"/>
<path d="M74.6699 43.5921C74.6699 43.5678 74.8893 43.5434 75.2551 43.4946C75.3526 43.4946 75.4258 43.4702 75.4502 43.3971C75.4746 43.3239 75.4258 43.2264 75.4014 43.1045C75.3282 42.8606 75.2307 42.5924 75.1332 42.3242C74.7674 41.2269 74.4992 40.3247 74.548 40.3247C74.5967 40.3003 74.9137 41.1781 75.2795 42.2754C75.377 42.5436 75.4502 42.8119 75.5233 43.0557C75.5477 43.1776 75.6209 43.2995 75.5721 43.4458C75.5477 43.519 75.4746 43.5678 75.4258 43.5921C75.377 43.6165 75.3039 43.6165 75.2795 43.6165C74.8893 43.6409 74.6699 43.6165 74.6699 43.5921Z" fill="#263238"/>
<path d="M74.8391 48.2227C74.8391 48.2227 73.0591 48.2715 71.3279 47.0767C71.3279 47.0767 72.1569 49.0517 74.7904 48.8811L74.8391 48.2227Z" fill="#995037"/>
<path d="M71.0843 34.0288C70.2065 35.2236 70.2309 37.0036 71.1331 38.174C71.5232 38.6861 72.1328 39.125 72.7668 39.1006C73.4252 39.0762 74.0591 38.4666 73.9128 37.8326C73.669 38.6373 74.3274 39.5639 75.1808 39.5883C76.0098 39.6126 76.717 38.6861 76.4975 37.8814C76.5707 38.174 76.6438 38.4666 76.7901 38.7104C76.9608 38.9543 77.2534 39.1494 77.546 39.1006C77.9605 39.0518 78.18 38.6129 78.2775 38.1984C78.5458 37.0036 78.1068 35.6869 77.229 34.8334C76.3512 33.98 75.0833 33.5655 73.8397 33.6386C72.6205 33.7118 71.4257 34.2726 70.5235 35.1016" fill="#263238"/>
<path d="M71.4222 34.981C71.7392 35.7612 71.9831 36.5659 71.9587 37.4193C71.9587 38.2484 71.6661 39.1018 71.0809 39.7114C70.4957 40.2966 69.5447 40.5648 68.7888 40.2722C68.9839 41.0037 68.9107 41.8328 68.4474 42.4424C67.9841 43.052 67.1063 43.3446 66.4479 42.9788C65.8384 42.6618 65.5945 41.9303 65.497 41.2476C65.3019 39.6139 65.8871 37.8826 67.0332 36.7122C68.1792 35.5418 69.8861 34.9078 71.5198 35.0541" fill="#263238"/>
<path d="M68.0576 41.4428C67.6919 41.2233 67.2042 41.394 66.9116 41.711C66.4727 42.1986 66.3751 43.0033 66.7165 43.5641C67.0579 44.125 67.8138 44.442 68.4478 44.2713" fill="#B77153"/>
<path d="M67.9831 43.4679C67.9831 43.4923 67.8612 43.4923 67.6661 43.4435C67.4954 43.3947 67.2028 43.2484 67.1053 42.9558C67.0565 42.8095 67.0565 42.6388 67.1297 42.5169C67.1784 42.395 67.276 42.2975 67.3491 42.2487C67.5198 42.1268 67.6417 42.1512 67.6417 42.1512C67.6417 42.1755 67.5442 42.1999 67.3979 42.3218C67.276 42.4194 67.1297 42.6632 67.2272 42.9071C67.3003 43.1509 67.5442 43.2972 67.6905 43.3703C67.8612 43.4191 67.9831 43.4435 67.9831 43.4679Z" fill="#995037"/>
<path d="M73.5204 39.7374C73.496 39.8349 73.0815 39.8105 72.6182 39.8349C72.1549 39.8593 71.7648 39.908 71.716 39.8105C71.6673 39.713 72.0574 39.4691 72.6182 39.4447C73.1547 39.4204 73.5692 39.6398 73.5204 39.7374Z" fill="#263238"/>
<path d="M77.3228 39.6624C77.2741 39.7112 77.2009 39.6868 77.1034 39.6624C77.0058 39.638 76.9083 39.638 76.762 39.638C76.6157 39.6624 76.4694 39.6868 76.3475 39.6868C76.2256 39.6868 76.1524 39.6624 76.128 39.6137C76.1036 39.5649 76.1768 39.4917 76.2743 39.4186C76.3719 39.3454 76.5182 39.2723 76.7376 39.2479C76.9571 39.2235 77.1765 39.3211 77.2497 39.443C77.3472 39.5405 77.3472 39.638 77.3228 39.6624Z" fill="#263238"/>
<path d="M74.0328 44.2945C74.2279 44.1726 74.4961 44.1238 74.7156 44.197C74.935 44.2701 75.1057 44.514 75.057 44.7578C75.0326 44.8797 74.935 45.0016 74.8375 45.0748C74.6668 45.1967 74.4718 45.2455 74.2767 45.2211C74.0816 45.1723 73.9109 45.026 73.8622 44.8309C73.8134 44.6359 73.9109 44.4164 74.0816 44.3189" fill="#995037"/>
<path d="M75.3711 44.5888C75.3711 44.6132 75.2736 44.6619 75.1029 44.7107C74.9322 44.7595 74.664 44.7595 74.4201 44.6375C74.1763 44.54 73.9812 44.3449 73.8837 44.1986C73.7861 44.0523 73.7618 43.9304 73.7861 43.9304C73.8105 43.9304 73.8593 44.028 73.9568 44.1499C74.0544 44.2718 74.225 44.4181 74.4689 44.5156C74.6883 44.6132 74.9322 44.6132 75.1029 44.6132C75.2492 44.5888 75.3467 44.5644 75.3711 44.5888Z" fill="#263238"/>
<path d="M69.8648 45.8798C69.8404 45.8798 69.8648 45.6847 69.7672 45.3677C69.6941 45.0507 69.4746 44.5874 68.987 44.2461C68.7431 44.0754 68.4505 43.9291 68.1092 43.8559C67.7678 43.8072 67.402 43.8072 67.0363 43.9535C66.8656 44.0266 66.6705 44.1241 66.5242 44.2461C66.3535 44.368 66.2072 44.5143 66.0853 44.685C65.8415 45.0263 65.6952 45.4409 65.6952 45.9042C65.6952 46.3431 65.8415 46.782 66.0853 47.1233C66.2072 47.294 66.3535 47.4403 66.5242 47.5622C66.6949 47.6842 66.8656 47.7817 67.0363 47.8549C67.402 48.0012 67.7678 48.0012 68.1092 47.9524C68.4505 47.9036 68.7431 47.7573 68.987 47.5622C69.4503 47.1965 69.6697 46.7332 69.7672 46.4406C69.8648 46.0505 69.8648 45.8798 69.8648 45.8798C69.8648 45.8798 69.8648 45.9285 69.8648 46.0261C69.8648 46.1236 69.8648 46.2455 69.816 46.4162C69.7429 46.7332 69.5478 47.2209 69.0601 47.611C68.8163 47.8061 68.4993 47.9524 68.1579 48.0255C67.7922 48.0987 67.402 48.0743 67.0119 47.928C66.8168 47.8549 66.6217 47.7573 66.4511 47.6354C66.2804 47.5135 66.1097 47.3672 65.9878 47.1721C65.7195 46.8064 65.5732 46.3674 65.5732 45.8798C65.5732 45.4165 65.7195 44.9532 65.9878 44.5874C66.1097 44.4167 66.2804 44.2461 66.4511 44.1241C66.6217 44.0022 66.8168 43.9047 67.0119 43.8315C67.402 43.6852 67.7922 43.6852 68.1579 43.734C68.5237 43.8072 68.8163 43.9535 69.0601 44.1485C69.5478 44.5387 69.7429 45.0263 69.816 45.3433C69.8648 45.514 69.8648 45.6359 69.8648 45.7335C69.8648 45.831 69.8648 45.8798 69.8648 45.8798Z" fill="#E8505B"/>
<path d="M77.3226 33.7622C77.3226 33.7622 77.347 33.7622 77.3957 33.7866C77.4445 33.811 77.4933 33.8354 77.5664 33.8841C77.6883 34.006 77.8347 34.2499 77.7859 34.5913C77.7371 34.9326 77.3957 35.2496 76.9325 35.3472C76.4692 35.4447 75.9571 35.274 75.4938 35.0058L74.9818 34.7132L75.5426 34.8839C75.7376 34.957 75.8596 35.1277 75.9083 35.3228C75.9571 35.5178 75.9327 35.7373 75.8352 35.908C75.7377 36.0787 75.5426 36.2006 75.3475 36.2494C75.1524 36.2981 74.933 36.2981 74.7379 36.225C74.2502 36.0787 73.9332 35.6641 73.665 35.2984L73.3237 34.7863L73.7626 35.2252C74.0064 35.4691 74.0796 35.8348 74.0064 36.1518C73.9333 36.4688 73.7138 36.7126 73.47 36.8346C72.9579 37.0784 72.3971 36.9321 72.0801 36.6639C71.7631 36.3957 71.6168 36.0787 71.5436 35.8836C71.5193 35.7861 71.4949 35.6885 71.4949 35.6398C71.4949 35.591 71.4949 35.5422 71.4949 35.5422C71.4949 35.5422 71.5193 35.6641 71.5924 35.8592C71.6656 36.0543 71.8119 36.3469 72.1289 36.5907C72.4215 36.8346 72.9579 36.9565 73.4212 36.737C73.665 36.6151 73.8357 36.3957 73.9089 36.1274C73.982 35.8592 73.9089 35.5422 73.6894 35.3228L73.7869 35.2496C74.0308 35.591 74.3478 35.9811 74.7867 36.103C75.1524 36.2006 75.567 36.1274 75.762 35.8348C75.9327 35.5422 75.8352 35.1033 75.5426 35.0058L75.5913 34.9082C76.0303 35.1765 76.5179 35.3472 76.9325 35.2496C77.347 35.1765 77.664 34.8839 77.7127 34.5913C77.7859 34.2987 77.664 34.0304 77.542 33.9329C77.4201 33.7866 77.3226 33.7622 77.3226 33.7622Z" fill="#455A64"/>
<path d="M70.8161 38.103C70.8161 38.103 70.8161 38.1274 70.7917 38.1518C70.7673 38.1762 70.7429 38.225 70.6698 38.2737C70.5723 38.3713 70.3772 38.5176 70.1333 38.5907C69.8651 38.6882 69.5238 38.737 69.158 38.6151C68.7922 38.4932 68.4021 38.225 68.1826 37.786L68.2802 37.7617C68.1827 38.3225 67.7194 38.9077 67.061 39.054C66.4026 39.2003 65.598 38.8589 65.281 38.1518C65.0128 37.5178 65.1834 36.7863 65.6224 36.3718L65.6955 36.4693C65.4029 36.7132 65.0128 36.8351 64.6714 36.8351C64.3056 36.8351 63.9886 36.7375 63.7204 36.5669C63.4522 36.3962 63.2571 36.1523 63.1352 35.8841C63.0377 35.6159 62.9889 35.3721 63.0133 35.1282C63.0377 34.6649 63.2571 34.3236 63.4034 34.1285C63.5741 33.9334 63.696 33.8846 63.696 33.8846C63.696 33.8846 63.5741 33.9578 63.4278 34.1529C63.2815 34.3479 63.0864 34.6649 63.0621 35.1282C63.0621 35.3477 63.0864 35.5915 63.184 35.8353C63.2815 36.0792 63.4766 36.2986 63.7204 36.4693C63.9643 36.6156 64.2812 36.7132 64.6226 36.7132C64.964 36.7132 65.3054 36.5912 65.5736 36.3718L65.6467 36.4693C65.2566 36.8595 65.0859 37.5422 65.3298 38.103C65.598 38.737 66.3539 39.0784 66.9635 38.9321C67.5731 38.7858 68.012 38.2737 68.1095 37.7373L68.1339 37.5666L68.207 37.7129C68.4021 38.1274 68.7679 38.3956 69.1092 38.5176C69.4506 38.6395 69.792 38.6151 70.0602 38.5176C70.304 38.4444 70.4991 38.3225 70.5966 38.225C70.7673 38.1518 70.8161 38.103 70.8161 38.103Z" fill="#455A64"/>
<path d="M65.9866 42.4424C65.9866 42.4424 65.9134 42.5156 65.7671 42.5643C65.6208 42.6375 65.377 42.6862 65.0844 42.6619C64.7918 42.6375 64.426 42.5156 64.1578 42.1986C63.8896 41.906 63.7189 41.4427 63.7921 40.955L63.914 41.0038C63.6945 41.2964 63.3775 41.5646 62.9874 41.7597C62.6948 41.8816 62.4022 41.9547 62.1096 41.9547C61.817 41.9547 61.5244 41.8572 61.2805 41.7353C60.7929 41.4671 60.5246 41.0038 60.5002 40.5892C60.4759 40.1747 60.6222 39.8577 60.7441 39.6627C60.8172 39.5651 60.8904 39.5164 60.9148 39.4676C60.9635 39.4432 60.9879 39.4188 60.9879 39.4188C60.9879 39.4188 60.8904 39.492 60.7685 39.687C60.6465 39.8577 60.5246 40.1747 60.5734 40.5649C60.5978 40.955 60.866 41.3939 61.3049 41.6134C61.7438 41.8572 62.3534 41.906 62.8899 41.6377C63.2556 41.4671 63.5482 41.2232 63.7677 40.9306L63.914 40.7355L63.8652 40.9794C63.7921 41.4183 63.9384 41.8572 64.1822 42.1254C64.426 42.418 64.7674 42.5399 65.0356 42.5643C65.3038 42.5887 65.5477 42.5399 65.694 42.4912C65.9134 42.4912 65.9866 42.4424 65.9866 42.4424Z" fill="#455A64"/>
<path d="M79.7897 37.1519C79.8141 37.1519 79.8629 37.3225 79.8385 37.5908C79.8141 37.859 79.6922 38.2735 79.3996 38.5905C79.0826 38.9075 78.6924 39.0538 78.4242 39.0782C78.1316 39.1026 77.9609 39.0538 77.9609 39.0538C77.9609 39.0294 78.1316 39.0538 78.3998 39.005C78.6681 38.9563 79.0094 38.81 79.302 38.5173C79.5946 38.2247 79.7166 37.859 79.741 37.5908C79.8141 37.3469 79.7653 37.1762 79.7897 37.1519Z" fill="#455A64"/>
<path d="M81.2961 39.7128C81.2961 39.7128 81.3449 39.7615 81.3693 39.9078C81.3936 40.0298 81.3936 40.2248 81.3205 40.4443C81.2473 40.6637 81.0523 40.9076 80.7353 40.9807C80.589 41.0051 80.3939 41.0051 80.2476 40.932C80.0769 40.8588 79.9306 40.7369 79.8575 40.5662L79.9794 40.5174C80.0038 40.5906 80.0038 40.6637 80.0038 40.7613C80.0038 41.1758 79.7112 41.5172 79.3942 41.6391C79.2235 41.6879 79.0528 41.6879 78.9065 41.6635C78.7602 41.6147 78.6383 41.5415 78.5407 41.4684C78.3457 41.2977 78.2725 41.1026 78.2481 40.9563C78.2238 40.81 78.2481 40.7369 78.2481 40.7369C78.2481 40.7369 78.2481 40.81 78.2969 40.932C78.3213 41.0539 78.4188 41.2489 78.6139 41.3952C78.7846 41.5416 79.0772 41.6391 79.3698 41.5416C79.638 41.444 79.8818 41.127 79.8818 40.7857C79.8818 40.7125 79.8819 40.6394 79.8575 40.5906L79.9794 40.5418C80.1013 40.8344 80.4671 40.9563 80.7109 40.8832C80.9791 40.8344 81.1742 40.615 81.2473 40.4199C81.3205 40.2248 81.3449 40.0541 81.3205 39.9322C81.2961 39.7859 81.2717 39.7128 81.2961 39.7128Z" fill="#455A64"/>
<path d="M73.863 43.3473C73.8874 43.3473 73.8874 43.3961 73.863 43.4936C73.8386 43.5667 73.7899 43.6887 73.6923 43.7618C73.5948 43.835 73.4729 43.8837 73.3997 43.8837C73.3266 43.8837 73.2534 43.8594 73.2534 43.8594C73.2534 43.8106 73.4485 43.8106 73.6192 43.6643C73.7655 43.518 73.8142 43.3229 73.863 43.3473Z" fill="#263238"/>
<defs>
<filter id="filter0_d" x="33.9111" y="73.0515" width="78.1542" height="25.7592" filterUnits="userSpaceOnUse" color-interpolation-filters="sRGB">
<feFlood flood-opacity="0" result="BackgroundImageFix"/>
<feColorMatrix in="SourceAlpha" type="matrix" values="0 0 0 0 0 0 0 0 0 0 0 0 0 0 0 0 0 0 127 0"/>
<feOffset dy="4"/>
<feGaussianBlur stdDeviation="2"/>
<feColorMatrix type="matrix" values="0 0 0 0 0 0 0 0 0 0 0 0 0 0 0 0 0 0 0.08 0"/>
<feBlend mode="normal" in2="BackgroundImageFix" result="effect1_dropShadow"/>
<feBlend mode="normal" in="SourceGraphic" in2="effect1_dropShadow" result="shape"/>
</filter>
<filter id="filter1_d" x="33.9111" y="73.0515" width="78.1542" height="25.7592" filterUnits="userSpaceOnUse" color-interpolation-filters="sRGB">
<feFlood flood-opacity="0" result="BackgroundImageFix"/>
<feColorMatrix in="SourceAlpha" type="matrix" values="0 0 0 0 0 0 0 0 0 0 0 0 0 0 0 0 0 0 127 0"/>
<feOffset dy="4"/>
<feGaussianBlur stdDeviation="2"/>
<feColorMatrix type="matrix" values="0 0 0 0 0 0 0 0 0 0 0 0 0 0 0 0 0 0 0.2 0"/>
<feBlend mode="normal" in2="BackgroundImageFix" result="effect1_dropShadow"/>
<feBlend mode="normal" in="SourceGraphic" in2="effect1_dropShadow" result="shape"/>
</filter>
</defs>
</svg>
