<svg width="150" height="150" viewBox="0 0 150 150" fill="none" xmlns="http://www.w3.org/2000/svg">
<path d="M44.9048 92.1032H84.6833C83.2989 89.1037 80.7608 87.2117 78.0382 87.2117H47.1198L44.9048 92.1032Z" fill="#8A8C91"/>
<path d="M38.2136 92.1032H54.1342C52.7498 89.1037 50.2117 87.2117 47.4891 87.2117H41.8591C39.1365 87.2117 37.7982 88.7807 38.2136 92.1032Z" fill="#8A8C91"/>
<path opacity="0.5" d="M38.2136 92.1032H54.1342C52.7498 89.1037 50.2117 87.2117 47.4891 87.2117H41.8591C39.1365 87.2117 37.7982 88.7807 38.2136 92.1032Z" fill="#263238"/>
<path d="M66.2703 134.235H62.8093V92.1033H59.0253V134.235H55.5643L51.8726 137.65H59.0253H62.8093H69.9621L66.2703 134.235Z" fill="#8A8C91"/>
<path opacity="0.7" d="M66.2703 134.235H62.8093V92.1033H59.0253V134.235H55.5643L51.8726 137.65H59.0253H62.8093H69.9621L66.2703 134.235Z" fill="white"/>
<path opacity="0.5" d="M62.8097 92.1033H59.0256V93.5338H62.8097V92.1033Z" fill="#8A8C91"/>
<path d="M87.5443 133.035L91.6975 131.974L90.7284 122.052L86.5752 123.114L87.5443 133.035Z" fill="#EC9A91"/>
<path d="M91.882 130.174L87.1289 130.774C86.9443 130.774 86.8521 130.913 86.8521 131.097L87.1289 134.881C87.1751 135.297 87.5904 135.573 87.9596 135.527C89.6209 135.297 90.3131 135.112 92.3435 134.697C93.6356 134.42 96.6352 133.82 98.3426 133.22C100.004 132.666 99.404 131.005 98.6656 131.097C96.8197 131.328 93.9586 131.097 92.6665 130.313C92.3896 130.174 92.1128 130.128 91.882 130.174Z" fill="#263238"/>
<path opacity="0.2" d="M86.5752 123.114L90.7284 122.052L91.1899 126.852L87.0367 127.729L86.5752 123.114Z" fill="black"/>
<path d="M59.5337 73.3215C59.5337 73.3215 90.2213 72.3063 90.3136 84.5351C90.452 102.117 92.3902 123.944 92.3902 123.944L84.6837 125.098C84.6837 125.098 79.4229 104.148 79.5614 90.4419C70.9319 87.9962 48.5508 89.6113 45.8743 82.4585C43.7054 76.5979 44.859 73.3676 44.859 73.3676H59.5337V73.3215Z" fill="#263238"/>
<path opacity="0.3" d="M72.1314 77.1055C72.1314 77.1055 71.2084 84.1198 74.3926 89.4728C76.3769 89.7035 78.0843 89.9804 79.5148 90.3957C79.5148 91.6878 79.561 93.0261 79.7456 94.4105C84.8217 86.7501 80.6224 78.0284 72.1314 77.1055Z" fill="black"/>
<path d="M84.0372 127.082L92.9897 125.421L93.1281 121.96L83.2065 123.668L84.0372 127.082Z" fill="#4B71A4"/>
<path d="M93.4515 130.682C93.0824 130.728 92.6209 130.728 92.2979 130.682C92.2517 130.682 92.2056 130.636 92.2056 130.636C92.2056 130.59 92.2056 130.544 92.2517 130.544C92.3902 130.451 93.4515 129.482 94.0053 129.574C94.1437 129.621 94.236 129.713 94.2822 129.805C94.3745 130.036 94.3283 130.22 94.236 130.359C94.0976 130.544 93.7746 130.636 93.4515 130.682ZM92.5747 130.497C93.3592 130.544 93.913 130.451 94.0976 130.22C94.1899 130.128 94.1899 129.99 94.1437 129.851C94.0976 129.759 94.0976 129.759 94.0053 129.713C93.6823 129.713 93.0362 130.128 92.5747 130.497Z" fill="#4B71A4"/>
<path d="M92.3441 130.682H92.2979C92.2518 130.682 92.2518 130.636 92.2518 130.59C92.2518 130.544 91.9749 129.344 92.3441 128.882C92.4364 128.744 92.5748 128.698 92.7594 128.698C92.944 128.698 93.0824 128.79 93.1747 128.928C93.3131 129.39 92.8055 130.359 92.4364 130.636C92.3902 130.682 92.3441 130.682 92.3441 130.682ZM92.7132 128.882C92.6209 128.882 92.5748 128.928 92.5287 128.975C92.2979 129.251 92.3441 129.944 92.4364 130.359C92.7594 129.99 93.0824 129.298 92.9901 128.975C92.9901 128.928 92.944 128.836 92.8055 128.836C92.7132 128.882 92.7132 128.882 92.7132 128.882Z" fill="#4B71A4"/>
<path d="M69.6399 133.958L73.8854 133.404L74.5776 123.344L70.3321 123.898L69.6399 133.958Z" fill="#EC9A91"/>
<path d="M73.9776 132.805L69.1783 132.666C68.9937 132.666 68.8553 132.758 68.8553 132.943L68.4861 136.727C68.4399 137.142 68.8091 137.512 69.2244 137.512C70.8857 137.558 71.6702 137.465 73.793 137.512C75.0851 137.558 77.6231 137.742 79.4229 137.512C81.1764 137.281 80.9457 135.527 80.1612 135.481C78.3154 135.343 75.8696 134.051 74.7159 133.081C74.4852 132.943 74.2544 132.851 73.9776 132.805Z" fill="#263238"/>
<path d="M75.4537 133.635C75.0384 133.635 74.6231 133.543 74.3001 133.451C74.2539 133.451 74.2539 133.405 74.2078 133.358C74.2078 133.312 74.2078 133.266 74.2539 133.266C74.3923 133.174 75.6383 132.389 76.1459 132.62C76.2844 132.666 76.3305 132.758 76.3767 132.897C76.4228 133.128 76.3767 133.312 76.2382 133.451C76.0998 133.589 75.7768 133.635 75.4537 133.635ZM74.6231 133.312C75.3614 133.497 75.9613 133.497 76.1459 133.312C76.2382 133.22 76.2382 133.128 76.2382 132.943C76.2382 132.851 76.1921 132.805 76.1459 132.805C75.8229 132.666 75.1307 132.989 74.6231 133.312Z" fill="#4B71A4"/>
<path d="M74.3463 133.451C74.3463 133.451 74.3463 133.404 74.3463 133.451C74.254 133.404 74.254 133.404 74.254 133.358C74.254 133.312 74.2078 132.066 74.6231 131.697C74.7616 131.605 74.9 131.559 75.0385 131.559C75.2231 131.605 75.3615 131.697 75.4076 131.882C75.4999 132.343 74.8077 133.22 74.3924 133.451C74.3924 133.451 74.3924 133.451 74.3463 133.451ZM74.9923 131.743C74.9 131.743 74.8539 131.789 74.7616 131.835C74.4847 132.066 74.4386 132.758 74.4386 133.174C74.8077 132.851 75.2692 132.205 75.2231 131.882C75.2231 131.835 75.1769 131.743 75.0385 131.743H74.9923Z" fill="#4B71A4"/>
<path opacity="0.2" d="M70.3316 123.898L74.5771 123.344L74.1618 129.113L69.9624 129.436L70.3316 123.898Z" fill="black"/>
<path d="M49.104 73.3214C49.104 73.3214 79.7454 76.2287 78.6379 85.458C77.0228 98.7483 76.2383 127.405 76.2383 127.405L68.4395 127.728C68.4395 127.728 65.1169 101.886 66.8243 88.273C58.8871 88.273 39.5055 88.8267 37.7057 84.0736C36.1368 79.8742 36.6905 73.3676 36.6905 73.3676H49.104V73.3214Z" fill="#263238"/>
<path d="M67.563 128.19L76.9308 127.728L77.2539 123.621L66.9631 124.36L67.563 128.19Z" fill="#4B71A4"/>
<path d="M62.3485 45.7719L62.6254 47.8946C62.7177 48.633 62.8099 49.3252 62.9484 50.0635C63.1791 51.494 63.4099 52.9246 63.6867 54.309C63.9636 55.6934 64.2866 57.0778 64.6558 58.4161C65.025 59.7543 65.4865 61.0003 66.0402 62.0155C66.3171 62.5231 66.594 62.9846 66.8247 63.2615C66.8709 63.3076 66.9632 63.3999 67.0555 63.4922C67.1477 63.5845 67.24 63.6768 67.3785 63.7691C67.6092 63.9537 67.8399 64.1383 68.0707 64.3228C69.0859 65.0612 70.2857 65.7072 71.5317 66.3072C74.0698 67.507 76.8847 68.4761 79.6535 69.399L79.1459 72.5831C77.5308 72.537 76.0079 72.3524 74.4389 72.1216C73.6544 71.9832 72.8699 71.8448 72.0854 71.6602C71.3009 71.4756 70.5165 71.291 69.732 71.0603C68.163 70.5988 66.594 69.9989 65.025 69.1221C64.6097 68.8914 64.2405 68.6606 63.8713 68.3838C63.6867 68.2453 63.5022 68.1069 63.2714 67.9684C63.0868 67.83 62.9022 67.6454 62.6715 67.4608C61.8409 66.6763 61.2871 65.8457 60.7795 65.0612C59.8104 63.4461 59.2105 61.9232 58.6567 60.3542C58.103 58.7852 57.6877 57.2624 57.3185 55.6934C56.9493 54.1244 56.6724 52.6016 56.4417 51.0326C56.3033 50.2481 56.211 49.4636 56.1187 48.7252C56.0264 47.9408 55.9341 47.2024 55.8879 46.3256L62.3485 45.7719Z" fill="#EC9A91"/>
<path d="M55.8876 42.6801C59.0256 39.6344 62.8557 41.4341 64.4247 47.1102C65.9476 52.7862 66.2245 56.3856 66.2245 56.3856L56.3029 58.4161C54.457 53.0631 52.6573 45.7719 55.8876 42.6801Z" fill="#4B71A4"/>
<path opacity="0.3" d="M59.0724 48.8637C58.3802 48.2176 56.3497 51.0787 55.1038 54.632C55.4729 55.9703 55.8421 57.2624 56.2574 58.4622L62.2104 57.2162C61.7489 53.7091 60.6414 50.2942 59.0724 48.8637Z" fill="black"/>
<path d="M79.0077 68.5684L81.3612 68.7068L79.4692 73.0446C79.4692 73.0446 75.4083 72.9523 75.5006 70.968L76.2389 69.9989C76.885 69.1683 77.9002 68.6607 79.0077 68.5684Z" fill="#B55B52"/>
<path d="M83.9452 69.0761L81.9148 73.0447H79.5151L81.4072 68.7069L83.9452 69.0761Z" fill="#B55B52"/>
<path d="M56.2571 39.6344L51.504 38.2961L45.4126 38.0193C43.5206 37.927 41.7671 39.1268 41.1671 40.9265C40.0135 44.4798 38.9521 49.6021 38.1676 54.0783C37.2908 59.0622 36.8294 66.5379 36.7371 73.3215H59.5336C60.0412 59.1545 61.8409 50.7558 62.6715 46.0949C62.9946 44.2029 62.0255 42.3571 60.318 41.5726L56.2571 39.6344Z" fill="#4B71A4"/>
<path opacity="0.3" d="M40.4288 43.3722C39.552 46.6025 38.7675 50.5711 38.1214 54.0321C37.6138 56.9855 37.2446 60.7696 37.0139 64.7843C40.7518 64.4152 44.905 60.0774 46.2433 54.2629C47.5354 48.633 44.4897 42.68 40.4288 43.3722Z" fill="black"/>
<path d="M53.3963 30.5896L55.2421 33.4046L57.7341 37.2347C57.5495 37.327 57.1803 37.9269 56.9496 38.3884C56.4881 39.3113 56.1189 40.0035 58.0571 41.3418C58.4724 41.6187 58.7493 42.1263 58.657 42.6339C58.5647 43.2338 57.9648 43.8337 55.842 43.4645C53.3963 43.0492 51.7811 41.7571 50.5813 40.5573C49.8891 39.8651 50.0275 39.3113 50.7197 38.6191C52.6118 36.4964 53.2117 33.22 53.3963 30.5896Z" fill="#EC9A91"/>
<path opacity="0.2" d="M57.1341 36.2656L55.6112 33.543C55.5651 33.5891 55.5651 33.6814 55.519 33.7737C55.3805 34.0506 55.2882 34.4198 55.1959 34.8351C54.9191 36.0349 55.842 37.7885 56.9034 38.6191C56.9495 38.5268 56.9957 38.4807 57.0418 38.3884C57.2264 37.9731 57.5494 37.4654 57.734 37.2809L57.7801 37.2347L57.1341 36.2656Z" fill="black"/>
<path d="M56.4417 47.1563C56.3955 47.1563 56.3494 47.1101 56.3032 47.064C56.3032 46.9717 56.3032 46.9256 56.3955 46.9256C56.4878 46.8794 56.5801 46.8794 56.7185 46.8333C58.3798 46.4641 62.3023 45.6335 61.9331 30.5896C61.9331 30.4973 61.9793 30.4512 62.0716 30.4512C62.1639 30.4512 62.21 30.4973 62.21 30.5896C62.5792 45.818 58.5183 46.6948 56.7647 47.064C56.6724 47.064 56.534 47.1101 56.4417 47.1563Z" fill="#263238"/>
<path d="M65.8093 26.3902C65.1171 24.3597 62.7175 25.698 62.7175 25.698C62.7175 25.698 62.6713 29.8973 63.9635 31.0048C65.2556 32.0662 66.4554 28.4206 65.8093 26.3902Z" fill="#263238"/>
<path d="M54.0422 25.5596C53.3039 29.759 52.6578 32.1586 54.1807 34.8351C56.488 38.8499 61.9795 38.3884 63.9638 34.5582C65.7174 31.0972 66.6403 24.8674 63.0409 22.0986C59.5337 19.4221 54.7806 21.4064 54.0422 25.5596Z" fill="#EC9A91"/>
<path d="M53.2573 28.0515C52.1498 29.8512 54.9186 30.4973 54.9186 30.4973C54.9186 30.4973 58.2873 27.9592 58.3335 26.2979C58.4258 24.5905 54.1341 26.6209 53.2573 28.0515Z" fill="#263238"/>
<path d="M52.1501 28.6976C51.5963 28.2361 50.9964 26.4826 51.4579 24.9136C51.9193 23.3907 53.396 21.6833 54.7343 22.2371C55.2419 20.8065 62.0716 19.0529 64.3789 22.2371C67.0555 25.975 65.6711 27.867 63.4099 26.4364L59.349 25.1443L52.1501 28.6976Z" fill="#263238"/>
<path d="M64.3327 26.1133C63.2713 27.4054 59.1181 27.0824 59.1181 27.0824L60.4564 25.6057C60.4564 25.6057 59.3489 26.5748 57.3184 26.4825C55.288 26.3441 56.3955 24.3136 56.3955 24.3136C56.3955 24.3136 66.3632 23.7137 64.3327 26.1133Z" fill="#263238"/>
<path d="M51.7807 28.6052C51.7346 29.6205 52.1038 30.5434 52.6114 31.1433C53.3959 32.0663 54.5496 31.3279 54.8264 30.1742C55.0572 29.159 54.7341 27.59 53.7651 27.0824C52.796 26.6209 51.8269 27.4516 51.7807 28.6052Z" fill="#EC9A91"/>
<path d="M51.3658 25.9288C51.0889 24.7289 51.5965 22.9754 52.4733 22.0063C52.1041 22.0986 50.9043 21.4064 53.0732 19.9297C55.2421 18.453 59.8106 18.0838 62.0257 19.1913C66.4558 21.3602 65.2098 23.9444 65.2098 23.9444L51.3658 25.9288Z" fill="#4B71A4"/>
<path opacity="0.3" d="M51.3658 25.9288C51.0889 24.7289 51.5965 22.9754 52.4733 22.0063C52.1041 22.0986 50.9043 21.4064 53.0732 19.9297C55.2421 18.453 59.8106 18.0838 62.0257 19.1913C66.4558 21.3602 65.2098 23.9444 65.2098 23.9444L51.3658 25.9288Z" fill="black"/>
<path d="M51.458 28.6053C52.2425 28.6514 52.9809 26.2979 59.4414 25.1443C62.0718 24.6828 64.7944 25.5134 65.5789 26.2518C66.3634 26.9901 65.9942 24.5444 65.7174 23.6214C65.4405 22.7446 61.3796 22.0063 58.7492 22.3293C54.1807 22.8831 51.4119 25.1904 51.0427 25.7903C50.6735 26.3902 50.7658 28.5591 51.458 28.6053Z" fill="#4B71A4"/>
<path d="M53.8575 29.2513C53.996 29.7127 53.8575 30.1742 53.5345 30.3126C53.2115 30.4049 52.7961 30.1281 52.6577 29.6666C52.5193 29.2051 52.6577 28.7437 52.9807 28.6052C53.3038 28.4668 53.7191 28.7437 53.8575 29.2513Z" fill="#263238"/>
<path d="M54.4108 72.86C53.6263 72.86 53.0725 72.6293 52.7956 72.214C52.1034 71.1526 52.9802 68.9376 53.9493 66.6302C54.8722 64.4613 55.7952 62.2001 55.5183 60.6773C55.0568 57.7239 55.4722 54.0322 55.8875 50.4327C56.0259 49.2329 56.1644 48.1254 56.2567 47.064C54.4569 45.2181 52.6572 42.8647 53.6263 37.9731C54.2723 34.7428 54.1339 32.0663 53.211 29.9897C53.1648 29.9436 53.211 29.8513 53.2571 29.8051C53.3033 29.759 53.3956 29.8051 53.4417 29.8513C54.3646 31.974 54.5031 34.6967 53.857 37.9731C52.9341 42.7724 54.7338 45.0797 56.4874 46.8794C56.5335 46.9256 56.5335 46.9256 56.5335 46.9717C56.4412 48.0792 56.3028 49.2329 56.1644 50.4327C55.749 53.986 55.3337 57.6778 55.7952 60.585C56.0721 62.2001 55.103 64.4613 54.18 66.6764C53.2571 68.9376 52.3803 71.0603 52.9802 71.9832C53.211 72.3524 53.6724 72.537 54.3646 72.537C54.4569 72.537 54.5031 72.5832 54.5031 72.6754C54.5492 72.8139 54.4569 72.86 54.4108 72.86Z" fill="#263238"/>
<path d="M60.4105 29.4359C60.3182 29.7589 60.3644 30.0819 60.5951 30.1742C60.8259 30.2665 61.0566 30.0358 61.1489 29.7128C61.2412 29.3897 61.195 29.0667 60.9643 28.9744C60.7797 28.9283 60.5028 29.1129 60.4105 29.4359Z" fill="#263238"/>
<path d="M64.8189 31.0466C64.9213 30.7048 64.8263 30.3743 64.6066 30.3084C64.3869 30.2426 64.1257 30.4662 64.0232 30.808C63.9207 31.1498 64.0158 31.4803 64.2355 31.5462C64.4552 31.612 64.7164 31.3884 64.8189 31.0466Z" fill="#263238"/>
<path d="M62.8099 30.5896C62.8099 30.5896 62.7638 32.4355 63.1329 33.4968C62.4869 33.7276 61.7485 33.1738 61.7485 33.1738L62.8099 30.5896Z" fill="#E06360"/>
<path d="M60.8717 34.9735C59.5796 34.5121 59.1643 33.4968 59.1182 33.4507C59.1182 33.4046 59.1182 33.3584 59.1643 33.3123C59.2105 33.3123 59.2566 33.3123 59.3027 33.3584C59.3027 33.3584 59.8104 34.5582 61.2871 34.8812C61.3332 34.8812 61.3794 34.9274 61.3794 35.0197C61.3794 35.0658 61.3332 35.112 61.2409 35.112C61.1025 35.0658 60.964 35.0197 60.8717 34.9735Z" fill="#263238"/>
<path d="M60.0872 28.0514C60.0411 28.0514 60.0411 28.0053 59.9949 28.0053C59.9488 27.913 59.9488 27.7746 60.0411 27.7284C60.964 27.1285 61.8408 27.5438 61.8408 27.5438C61.9331 27.59 61.9792 27.7284 61.9331 27.8207C61.8869 27.913 61.7485 27.9592 61.6562 27.913C61.61 27.913 60.964 27.59 60.2256 28.0514C60.2256 28.0514 60.1333 28.0514 60.0872 28.0514Z" fill="#263238"/>
<path d="M64.7942 28.6514C64.7942 28.6053 64.7942 28.6053 64.7942 28.5591C64.8403 28.4668 64.9326 28.4207 65.0711 28.4668C66.0863 28.8822 66.2709 29.8051 66.2709 29.8512C66.317 29.9435 66.2247 30.082 66.0863 30.082C65.994 30.082 65.8556 30.0358 65.8556 29.8974C65.8556 29.8512 65.7171 29.159 64.9326 28.836C64.8403 28.7899 64.7942 28.7437 64.7942 28.6514Z" fill="#263238"/>
<path d="M47.5351 44.3412C47.1659 45.0334 46.7506 45.8179 46.3352 46.5563C45.9199 47.2946 45.5507 48.0791 45.1816 48.8636C44.3971 50.3865 43.7049 51.9554 43.0588 53.4783C42.4128 55.0473 41.859 56.5701 41.4437 58.093C41.2591 58.8313 41.1207 59.5697 41.0745 60.2157C40.9822 60.8156 41.1207 61.5078 41.0745 61.3694C41.1207 61.5078 41.4437 61.9231 41.9513 62.2923C42.4589 62.6615 43.105 63.0768 43.7972 63.3998C45.1816 64.092 46.7967 64.6919 48.4118 65.1996C50.027 65.7072 51.6883 66.1686 53.3957 66.6301C55.057 67.0916 56.8106 67.4608 58.518 67.8299L58.195 71.0141C54.5032 70.9218 50.9038 70.5987 47.212 69.9065C45.3662 69.5374 43.5203 69.0759 41.6744 68.3375C40.7515 67.9684 39.7824 67.553 38.8133 66.907C37.8442 66.3071 36.7829 65.5226 35.9522 64.0459C35.7676 63.6767 35.5831 63.2614 35.4446 62.8461C35.3985 62.7538 35.3985 62.6153 35.3523 62.5231L35.3062 62.2923C35.26 62.1077 35.26 61.9693 35.2139 61.7847C35.1216 61.1387 35.0754 60.5387 35.0754 59.985C35.0754 58.8313 35.26 57.8161 35.4446 56.8009C35.8599 54.8165 36.4137 52.9707 37.1059 51.2171C37.7519 49.4635 38.5364 47.7561 39.3209 46.0487C39.7363 45.218 40.1516 44.3874 40.5669 43.5567C40.9822 42.7261 41.4437 41.9416 41.9513 41.111L47.5351 44.3412Z" fill="#EC9A91"/>
<path d="M44.0281 38.0653C48.3198 37.4193 50.4425 41.111 48.4121 46.6025C46.3816 52.0939 44.4896 55.2319 44.4896 55.2319L35.2141 51.171C36.8754 45.7257 39.598 38.7575 44.0281 38.0653Z" fill="#4B71A4"/>
<path d="M58.8412 67.8299L61.4255 68.7067L58.0106 71.9831C58.0106 71.9831 53.8112 70.5064 54.688 68.6605L55.7494 68.0606C56.6262 67.553 57.7799 67.4607 58.8412 67.8299Z" fill="#EC9A91"/>
<path d="M64.4249 70.4604L60.5947 72.7216L58.0105 71.9832L61.4254 68.7068L64.4249 70.4604Z" fill="#EC9A91"/>
<path d="M125.199 72.9061H29.3987V76.0441H125.199V72.9061Z" fill="black"/>
<path opacity="0.6" d="M125.199 72.9061H29.3987V76.0441H125.199V72.9061Z" fill="white"/>
<path opacity="0.5" d="M29.3799 76.0507H48.4846V72.9127H29.3799V76.0507Z" fill="black"/>
<path d="M99.2659 71.8909H54.1344C53.5806 71.8909 53.1191 72.3523 53.1191 72.9061H100.327C100.281 72.3523 99.8196 71.8909 99.2659 71.8909Z" fill="#4B71A4"/>
<path d="M105.219 50.7556H74.3468C73.9776 50.7556 73.5623 51.0786 73.47 51.4478L68.3939 70.4603C68.3016 70.8294 68.5323 71.1525 68.9015 71.1525H99.7737C100.143 71.1525 100.558 70.8294 100.65 70.4603L105.727 51.4478C105.819 51.0786 105.588 50.7556 105.219 50.7556Z" fill="#4B71A4"/>
<path opacity="0.2" d="M73.5167 51.4478L68.4405 70.4603C68.3482 70.8294 68.579 71.1525 68.9481 71.1525L74.3934 50.7556C73.9781 50.7556 73.609 51.0786 73.5167 51.4478Z" fill="black"/>
<path opacity="0.2" d="M67.2862 71.8909H54.1344C53.5806 71.8909 53.1191 72.3523 53.1191 72.9061H68.3476C68.3014 72.3523 67.84 71.8909 67.2862 71.8909Z" fill="black"/>
<path d="M49.1966 138.25H51.0425L48.4582 123.991H50.0734V122.145H48.1352L40.1057 77.8901H41.3055V76.0442H36.737V77.8901H37.9368L29.9072 122.145H27.9691V123.991H29.5842L27 138.25H28.8459L31.4301 123.991H46.7047L49.1966 138.25ZM31.6147 122.145L38.9059 81.9048L46.1971 122.145H31.6147Z" fill="#263238"/>
<path d="M125.154 136.543H127L124.416 123.991H126.031V122.145H124.093L116.063 77.8901H117.263V76.0442H112.694V77.8901H113.894L105.865 122.145H103.834V123.991H105.449L102.865 136.543H104.711L107.295 123.991H122.57L125.154 136.543ZM107.618 122.145L114.91 81.9048L122.201 122.145H107.618Z" fill="#323232"/>
<path d="M104.48 72.2139V72.5831C104.48 72.7677 104.619 72.9061 104.803 72.9061H116.617C116.801 72.9061 116.94 72.7677 116.94 72.5831V72.2139C116.94 72.0293 116.801 71.8909 116.617 71.8909H104.803C104.619 71.8909 104.48 72.0293 104.48 72.2139Z" fill="#263238"/>
<path opacity="0.9" d="M82.7761 50.1107C82.4069 50.1107 82.13 49.8338 82.1762 49.4646L84.0682 28.1448C84.1143 27.7757 84.4374 27.4988 84.8065 27.4988H110.787C111.156 27.4988 111.433 27.7757 111.387 28.1448L109.495 49.4646C109.449 49.8338 109.126 50.1107 108.757 50.1107H82.7761Z" fill="#263238"/>
<path d="M104.696 34.0978H89.6523L89.6985 33.5441H104.742L104.696 34.0978Z" fill="white"/>
<path d="M107.05 34.9747H91.1289L91.175 34.4209H107.096L107.05 34.9747Z" fill="#4B71A4"/>
<path d="M104.235 35.8514H91.0371L91.0833 35.2976H104.281L104.235 35.8514Z" fill="#4B71A4"/>
<path d="M102.804 36.7282H90.9443L91.0366 36.1744H102.85L102.804 36.7282Z" fill="#4B71A4"/>
<path d="M99.0665 38.2049H89.2834L89.3296 37.6511H99.1127L99.0665 38.2049Z" fill="white"/>
<path d="M101.143 40.2815H90.6672L90.6211 40.8353H101.096L101.143 40.2815Z" fill="#4B71A4"/>
<path d="M99.4354 39.4048H90.7136L90.6675 39.9585H99.3892L99.4354 39.4048Z" fill="#4B71A4"/>
<path d="M100.358 38.528H90.8059L90.7598 39.0817H100.312L100.358 38.528Z" fill="#4B71A4"/>
<path d="M98.4667 44.9423H88.6836L88.7297 44.3885H98.5129L98.4667 44.9423Z" fill="white"/>
<path d="M100.543 47.0651H90.0674L90.0212 47.6188H100.497L100.543 47.0651Z" fill="#4B71A4"/>
<path d="M98.8355 46.1421H90.1138L90.0676 46.6959H98.7432L98.8355 46.1421Z" fill="#4B71A4"/>
<path d="M99.7584 45.2654H90.2061L90.1599 45.8191H99.7123L99.7584 45.2654Z" fill="#4B71A4"/>
<path d="M94.4978 29.9446H86.6067L86.6528 29.3909H94.5439L94.4978 29.9446Z" fill="white"/>
<path d="M96.159 32.0674H87.668L87.6218 32.6211H96.1128L96.159 32.0674Z" fill="white"/>
<path d="M94.7743 31.1906H87.7139L87.6677 31.7443H94.7282L94.7743 31.1906Z" fill="white"/>
<path d="M95.5593 30.2677H87.8066L87.7605 30.8215H95.5132L95.5593 30.2677Z" fill="white"/>
<path d="M100.912 42.958H90.4368L90.3445 43.5118H100.866L100.912 42.958Z" fill="#4B71A4"/>
<path d="M99.1585 42.0812H90.4829L90.4368 42.6349H99.1124L99.1585 42.0812Z" fill="#4B71A4"/>
<path d="M100.128 41.1583H90.5752L90.5291 41.7121H100.081L100.128 41.1583Z" fill="#4B71A4"/>
<path d="M127.266 26.8195H109.961C109.638 26.8195 109.361 26.6811 109.13 26.4504C108.9 26.2196 108.807 25.9427 108.854 25.6197L110.146 10.9912C110.192 10.3451 110.746 9.83752 111.392 9.83752H128.697C129.02 9.83752 129.297 9.97597 129.527 10.2067C129.712 10.4374 129.85 10.7143 129.804 11.0373L128.512 25.6659C128.466 26.2658 127.912 26.8195 127.266 26.8195ZM111.438 10.299C111.022 10.299 110.653 10.622 110.653 11.0373L109.361 25.6659C109.361 25.8504 109.407 26.035 109.5 26.1735C109.638 26.3119 109.777 26.3581 109.961 26.3581H127.266C127.681 26.3581 128.051 26.035 128.051 25.6197L129.343 10.9912C129.343 10.8066 129.297 10.622 129.204 10.4836C129.066 10.3451 128.927 10.299 128.743 10.299H111.438Z" fill="#4B71A4"/>
<path d="M129.343 14.1753H110.146C110.007 14.1753 109.915 14.083 109.915 13.9446C109.915 13.8062 110.007 13.7139 110.146 13.7139H129.343C129.481 13.7139 129.573 13.8062 129.573 13.9446C129.573 14.083 129.481 14.1753 129.343 14.1753Z" fill="#4B71A4"/>
<path d="M113.56 26.8195C113.422 26.8195 113.329 26.6811 113.329 26.5888L114.437 13.9446C114.437 13.8062 114.575 13.7139 114.668 13.7139C114.806 13.7139 114.898 13.8523 114.898 13.9446L113.791 26.5888C113.791 26.7273 113.652 26.8195 113.56 26.8195Z" fill="#4B71A4"/>
<path d="M127.082 15.6982H116.653C116.514 15.6982 116.422 15.6059 116.422 15.4674C116.422 15.329 116.514 15.2367 116.653 15.2367H127.082C127.22 15.2367 127.312 15.329 127.312 15.4674C127.312 15.5597 127.22 15.6982 127.082 15.6982Z" fill="#4B71A4"/>
<path d="M125.466 17.544H116.514C116.375 17.544 116.283 17.4517 116.283 17.3133C116.283 17.1748 116.375 17.0825 116.514 17.0825H125.466C125.605 17.0825 125.697 17.1748 125.697 17.3133C125.697 17.4055 125.605 17.544 125.466 17.544Z" fill="#4B71A4"/>
<path d="M121.544 19.4361H116.329C116.191 19.4361 116.099 19.3438 116.099 19.2053C116.099 19.0669 116.191 18.9746 116.329 18.9746H121.544C121.682 18.9746 121.775 19.0669 121.775 19.2053C121.775 19.2976 121.682 19.4361 121.544 19.4361Z" fill="#4B71A4"/>
<path d="M122.375 23.1277H116.006C115.868 23.1277 115.776 23.0354 115.776 22.897C115.776 22.7586 115.868 22.6663 116.006 22.6663H122.375C122.513 22.6663 122.605 22.7586 122.605 22.897C122.605 23.0354 122.513 23.1277 122.375 23.1277Z" fill="#4B71A4"/>
<path d="M121.036 25.0198H115.822C115.683 25.0198 115.591 24.9275 115.591 24.7891C115.591 24.6506 115.683 24.5583 115.822 24.5583H121.036C121.175 24.5583 121.267 24.6506 121.267 24.7891C121.267 24.9275 121.175 25.0198 121.036 25.0198Z" fill="#4B71A4"/>
<path d="M124.082 25.0198H122.421C122.282 25.0198 122.19 24.9275 122.19 24.7891C122.19 24.6506 122.282 24.5583 122.421 24.5583H124.082C124.221 24.5583 124.313 24.6506 124.313 24.7891C124.313 24.9275 124.221 25.0198 124.082 25.0198Z" fill="#4B71A4"/>
<path d="M125.928 21.2819H116.191C116.052 21.2819 115.96 21.1896 115.96 21.0512C115.96 20.9127 116.052 20.8204 116.191 20.8204H125.928C126.066 20.8204 126.158 20.9127 126.158 21.0512C126.158 21.1435 126.066 21.2819 125.928 21.2819Z" fill="#4B71A4"/>
<path d="M87.0322 23.0684C86.956 23.0684 86.8036 23.0684 86.7274 22.9922C86.5749 22.8398 86.5749 22.6111 86.7274 22.4587L88.6328 20.5533L86.7274 18.6478C86.5749 18.4954 86.5749 18.2668 86.7274 18.1143C86.8798 17.9619 87.1084 17.9619 87.2609 18.1143L89.3949 20.2484C89.5474 20.4008 89.5474 20.6295 89.3949 20.7819L87.2609 22.916C87.2609 22.9922 87.1847 23.0684 87.0322 23.0684Z" fill="#263238"/>
<path d="M80.5535 23.0693C80.4773 23.0693 80.3249 23.0693 80.2486 22.9931L78.1146 20.8591C77.9621 20.7066 77.9621 20.478 78.1146 20.3255L80.2486 18.1915C80.4011 18.039 80.6297 18.039 80.7821 18.1915C80.9346 18.3439 80.9346 18.5726 80.7821 18.725L78.8767 20.6304L80.7821 22.5358C80.9346 22.6882 80.9346 22.9169 80.7821 23.0693C80.7821 22.9931 80.6297 23.0693 80.5535 23.0693Z" fill="#263238"/>
<path d="M82.9922 23.0684C82.916 23.0684 82.916 23.0684 82.8398 23.0684C82.6111 22.9922 82.5349 22.7635 82.6111 22.6111L84.2117 18.2667C84.2879 18.0381 84.5165 17.9619 84.669 18.0381C84.8976 18.1143 84.9738 18.343 84.8976 18.4954L83.2971 22.8397C83.2971 22.916 83.1446 23.0684 82.9922 23.0684Z" fill="#263238"/>
<path d="M122.544 58.9984C122.425 58.9984 122.188 58.9984 122.069 58.8797C121.831 58.6422 121.831 58.2859 122.069 58.0485L125.038 55.0798L122.069 52.1111C121.831 51.8737 121.831 51.5174 122.069 51.2799C122.306 51.0424 122.663 51.0424 122.9 51.2799L126.225 54.6048C126.344 54.7236 126.344 54.8423 126.344 55.0798C126.344 55.1985 126.225 55.436 126.225 55.5548L122.9 58.8797C122.9 58.9984 122.781 58.9984 122.544 58.9984Z" fill="#4B71A4"/>
<path d="M112.45 58.9999C112.331 58.9999 112.094 58.9999 111.975 58.8812L108.65 55.5563C108.413 55.3188 108.413 54.9626 108.65 54.7251L111.975 51.4002C112.212 51.1627 112.569 51.1627 112.806 51.4002C113.044 51.6377 113.044 51.9939 112.806 52.2314L109.838 55.2L112.806 58.1687C113.044 58.4062 113.044 58.7624 112.806 58.9999C112.806 58.9999 112.569 58.9999 112.45 58.9999Z" fill="#4B71A4"/>
<path d="M116.251 58.9985C116.132 58.9985 116.132 58.9985 116.013 58.9985C115.657 58.8797 115.538 58.5235 115.657 58.286L118.151 51.5175C118.269 51.1612 118.625 51.0425 118.863 51.1612C119.219 51.28 119.338 51.6362 119.219 51.8737L116.726 58.6422C116.726 58.8797 116.488 58.9985 116.251 58.9985Z" fill="#4B71A4"/>
<path d="M109.526 8.99908C109.45 8.99908 109.3 8.99908 109.225 8.9239C109.074 8.77356 109.074 8.54804 109.225 8.39769L111.104 6.51833L109.225 4.63898C109.074 4.48863 109.074 4.26311 109.225 4.11276C109.375 3.96241 109.601 3.96241 109.751 4.11276L111.856 6.21764C112.006 6.36799 112.006 6.59351 111.856 6.74386L109.751 8.84873C109.751 8.99908 109.676 8.99908 109.526 8.99908Z" fill="#4B71A4"/>
<path d="M103.135 8.99995C103.06 8.99995 102.91 8.99996 102.835 8.92478L100.73 6.81991C100.579 6.66956 100.579 6.44403 100.73 6.29369L102.835 4.18881C102.985 4.03846 103.21 4.03846 103.361 4.18881C103.511 4.33916 103.511 4.56468 103.361 4.71503L101.481 6.59438L103.361 8.47374C103.511 8.62409 103.511 8.84961 103.361 8.99995C103.361 8.99995 103.21 8.99995 103.135 8.99995Z" fill="#4B71A4"/>
<path d="M105.541 8.99908C105.465 8.99908 105.465 8.99908 105.39 8.99908C105.165 8.92391 105.089 8.69839 105.165 8.54804L106.743 4.26311C106.819 4.03759 107.044 3.96242 107.194 4.03759C107.42 4.11276 107.495 4.33829 107.42 4.48864L105.841 8.77356C105.841 8.92391 105.691 8.99908 105.541 8.99908Z" fill="#4B71A4"/>
</svg>
